IKResults
version=1
nRows=5
nColumns=40
inDegrees=yes

Units are S.I. units (second, meters, Newtons, ...)
Angles are in degrees.

endheader
time	pelvis_tilt	pelvis_list	pelvis_rotation	pelvis_tx	pelvis_ty	pelvis_tz	hip_flexion_r	hip_adduction_r	hip_rotation_r	knee_angle_r	knee_angle_r_beta	ankle_angle_r	subtalar_angle_r	mtp_angle_r	hip_flexion_l	hip_adduction_l	hip_rotation_l	knee_angle_l	knee_angle_l_beta	ankle_angle_l	subtalar_angle_l	mtp_angle_l	lumbar_extension	lumbar_bending	lumbar_rotation	arm_flex_r	arm_add_r	arm_rot_r	elbow_flex_r	pro_sup_r	wrist_flex_r	wrist_dev_r	arm_flex_l	arm_add_l	arm_rot_l	elbow_flex_l	pro_sup_l	wrist_flex_l	wrist_dev_l
     10.00000000	     -0.01031501	     -1.63635583	      2.24277085	      0.02615649	      0.92158547	      0.01953389	      6.12089087	      3.29927151	     -6.22764906	     14.68484264	      0.25629885	     12.81188287	      0.00000000	      0.00000000	     18.41262474	     -5.17756118	      1.77958120	     64.22485364	      1.12093516	      1.07618821	      0.00000000	      0.00000000	      1.02222911	      1.79207275	     -2.57407022	     -0.91264484	     -3.67481821	      2.78423549	     18.96122336	     40.79873122	      0.00000002	      0.00000001	      2.02025742	     -8.93951075	      6.23192971	     18.20184907	     38.44483850	      0.00000000	      0.00000000
     10.01000000	      0.00400170	     -1.30027238	      2.18817916	      0.02531543	      0.92196039	      0.02001314	      5.21559810	      3.01782286	     -5.97670408	     14.23567713	      0.24845944	     13.15158222	      0.00000000	      0.00000000	     19.73809082	     -4.68859510	      1.64216890	     63.62985093	      1.11055040	      2.46016321	      0.00000000	      0.00000000	      0.93102937	      1.51560537	     -1.84165556	     -0.52568637	     -3.79843594	      1.98036075	     19.33922745	     41.14048078	      0.00000002	      0.00000001	      1.58395594	     -8.87393016	      6.78150314	     18.06654086	     38.43014692	      0.00000000	      0.00000000
     10.02000000	      0.01586185	     -0.96176928	      2.12268246	      0.02441252	      0.92221703	      0.02053403	      4.36043270	      2.72940502	     -6.06790948	     13.92399198	      0.24301951	     13.56819745	      0.00000000	      0.00000000	     20.91827563	     -4.22747297	      1.51425221	     62.60603664	      1.09268147	      3.61491731	      0.00000000	      0.00000000	      0.87021451	      1.22489763	     -1.21496284	     -0.21339075	     -4.01726296	      1.54972371	     19.76130958	     41.36689997	      0.00000002	      0.00000001	      1.14741253	     -8.93352798	      6.97641926	     18.13960647	     38.53808501	      0.00000000	      0.00000000
     10.03000000	     -0.04366527	     -0.63479424	      2.03843343	      0.02341516	      0.92231375	      0.02111468	      3.57736557	      2.45934210	     -5.96654925	     13.51057663	      0.23580405	     13.85966859	      0.00000000	      0.00000000	     22.12611903	     -3.78123223	      1.36868751	     61.40535951	      1.07172570	      4.99070866	      0.00000000	      0.00000000	      0.87609841	      1.01540603	      0.03830268	      0.30640186	     -3.74570390	     -8.35020650	     20.39993475	     42.95810169	      0.00000002	      0.00000001	      0.55924990	     -9.43612755	     16.04706769	     18.42642132	     36.69220142	      0.00000000	      0.00000000
     10.04000000	     -0.06337785	     -0.30717177	      1.92236520	      0.02235580	      0.92234699	      0.02169282	      2.82048280	      2.17810134	     -6.08695101	     13.25533438	      0.23134923	     14.18433225	      0.00000000	      0.00000000	     23.23684863	     -3.43194157	      1.08023157	     59.93796195	      1.04611478	      5.68828903	      0.00000000	      0.00000000	      0.77966305	      0.71025772	      0.71710498	      0.75265748	     -3.98548742	     -8.39084526	     20.54271118	     42.92949496	      0.00000002	      0.00000001	      0.17262640	     -9.45017694	     16.02512573	     18.39490479	     36.71699809	      0.00000000	      0.00000000
